{"accessors":[{"bufferView":0,"byteOffset":0,"componentType":5126,"count":18,"max":[0.0,120.0,12.5],"min":[0.0,50.0,-12.5],"type":"VEC3"},{"bufferView":0,"byteOffset":216,"componentType":5126,"count":4,"max":[8.0,114.0,12.5],"min":[0.0,50.0,12.5],"type":"VEC3"},{"bufferView":0,"byteOffset":264,"componentType":5126,"count":16,"max":[8.0,120.0,12.5],"min":[0.0,114.0,6.500000000000001],"type":"VEC3"},{"bufferView":0,"byteOffset":456,"componentType":5126,"count":8,"max":[57.0,50.0,24.5],"min":[-57.0,50.0,-24.5],"type":"VEC3"},{"bufferView":0,"byteOffset":552,"componentType":5126,"count":4,"max":[8.0,120.0,6.500000000000001],"min":[0.0,120.0,-6.500000000000001],"type":"VEC3"},{"bufferView":0,"byteOffset":600,"componentType":5126,"count":4,"max":[8.0,114.0,-12.5],"min":[0.0,50.0,-12.5],"type":"VEC3"},{"bufferView":0,"byteOffset":648,"componentType":5126,"count":16,"max":[8.0,120.0,-6.500000000000001],"min":[0.0,114.0,-12.5],"type":"VEC3"},{"bufferView":0,"byteOffset":840,"componentType":5126,"count":44,"max":[8.0,120.0,12.5],"min":[8.0,50.0,-12.5],"type":"VEC3"},{"bufferView":0,"byteOffset":1368,"componentType":5126,"count":20,"max":[65.0,50.0,32.5],"min":[-65.0,42.0,24.5],"type":"VEC3"},{"bufferView":0,"byteOffset":1608,"componentType":5126,"count":18,"max":[65.0,50.0,32.5],"min":[57.0,42.0,-32.5],"type":"VEC3"},{"bufferView":0,"byteOffset":1824,"componentType":5126,"count":20,"max":[-57.0,50.0,32.5],"min":[-65.0,42.0,-32.5],"type":"VEC3"},{"bufferView":0,"byteOffset":2064,"componentType":5126,"count":18,"max":[65.0,50.0,-24.5],"min":[-65.0,42.0,-32.5],"type":"VEC3"},{"bufferView":0,"byteOffset":2280,"componentType":5126,"count":78,"max":[14.0,116.5174380843945,5.55796188425079],"min":[8.0,105.4825619156055,-5.55796188425079],"type":"VEC3"},{"bufferView":0,"byteOffset":3216,"componentType":5126,"count":42,"max":[65.0,42.0,32.500000000000017],"min":[-65.0,3.907985046680551e-14,32.49999999999999],"type":"VEC3"},{"bufferView":0,"byteOffset":3720,"componentType":5126,"count":6,"max":[65.0,42.0,32.50000000000001],"min":[65.0,0.0,-32.5],"type":"VEC3"},{"bufferView":0,"byteOffset":3792,"componentType":5126,"count":6,"max":[-65.0,42.0,32.5],"min":[-65.0,0.0,-32.5],"type":"VEC3"},{"bufferView":0,"byteOffset":3864,"componentType":5126,"count":42,"max":[65.0,42.0,-32.499999999999989],"min":[-65.0,3.907985046680551e-14,-32.5],"type":"VEC3"},{"bufferView":0,"byteOffset":4368,"componentType":5126,"count":26,"max":[14.0,116.5174380843945,5.55796188425079],"min":[14.0,105.4825619156055,-5.55796188425079],"type":"VEC3"},{"bufferView":0,"byteOffset":4680,"componentType":5126,"count":69,"max":[-15.0,32.0,44.5],"min":[-65.0,-18.0,32.49999999999999],"type":"VEC3"},{"bufferView":0,"byteOffset":5508,"componentType":5126,"count":69,"max":[65.0,32.000000000000017,44.50000000000001],"min":[14.999999999999992,-17.99999999999999,32.5],"type":"VEC3"},{"bufferView":0,"byteOffset":6336,"componentType":5126,"count":12,"max":[65.0,4.8405723873656828e-14,32.50000000000001],"min":[-65.0,-2.8821389719269066e-13,-32.5],"type":"VEC3"},{"bufferView":0,"byteOffset":6480,"componentType":5126,"count":5,"max":[65.0,7.000000000000028,-32.5],"min":[63.99999999999983,-2.8688162956314047e-13,-32.500000000000017],"type":"VEC3"},{"bufferView":0,"byteOffset":6540,"componentType":5126,"count":5,"max":[65.0,7.000000000000028,32.500000000000017],"min":[63.99999999999982,-2.8688162956314047e-13,32.5],"type":"VEC3"},{"bufferView":0,"byteOffset":6600,"componentType":5126,"count":5,"max":[-63.99999999999983,7.000000000000003,32.5],"min":[-65.0,-2.8821389719269066e-13,32.5],"type":"VEC3"},{"bufferView":0,"byteOffset":6660,"componentType":5126,"count":5,"max":[-63.99999999999983,7.000000000000003,-32.5],"min":[-65.0,-2.8821389719269066e-13,-32.5],"type":"VEC3"},{"bufferView":0,"byteOffset":6720,"componentType":5126,"count":69,"max":[65.0,32.000000000000017,-32.499999999999989],"min":[14.999999999999992,-17.99999999999999,-44.50000000000001],"type":"VEC3"},{"bufferView":0,"byteOffset":7548,"componentType":5126,"count":69,"max":[-15.0,32.0,-32.499999999999989],"min":[-65.0,-18.0,-44.5],"type":"VEC3"},{"bufferView":0,"byteOffset":8376,"componentType":5126,"count":345,"max":[-15.000000000000007,32.0,48.5],"min":[-65.0,-18.0,44.499999999999989],"type":"VEC3"},{"bufferView":0,"byteOffset":12516,"componentType":5126,"count":14,"max":[-15.999999999999972,4.8405723873656828e-14,32.50000000000001],"min":[-63.99999999999983,-17.87758710789442,32.5],"type":"VEC3"},{"bufferView":0,"byteOffset":12684,"componentType":5126,"count":345,"max":[65.0,32.000000000000017,48.50000000000001],"min":[14.999999999999995,-17.99999999999999,44.49999999999999],"type":"VEC3"},{"bufferView":0,"byteOffset":16824,"componentType":5126,"count":14,"max":[63.99999999999982,3.907985046680551e-14,32.500000000000017],"min":[15.999999999999972,-17.877587107894415,32.5],"type":"VEC3"},{"bufferView":0,"byteOffset":16992,"componentType":5126,"count":14,"max":[-15.999999999999972,4.8405723873656828e-14,-32.5],"min":[-63.99999999999983,-17.87758710789442,-32.500000000000017],"type":"VEC3"},{"bufferView":0,"byteOffset":17160,"componentType":5126,"count":14,"max":[63.99999999999983,3.907985046680551e-14,-32.5],"min":[15.999999999999972,-17.877587107894415,-32.500000000000017],"type":"VEC3"},{"bufferView":0,"byteOffset":17328,"componentType":5126,"count":345,"max":[65.0,32.000000000000017,-44.49999999999999],"min":[14.999999999999995,-17.99999999999999,-48.50000000000001],"type":"VEC3"},{"bufferView":0,"byteOffset":21468,"componentType":5126,"count":345,"max":[-15.000000000000007,32.0,-44.499999999999989],"min":[-65.0,-18.0,-48.5],"type":"VEC3"},{"bufferView":0,"byteOffset":25608,"componentType":5126,"count":29,"max":[-19.000000000000008,27.969201690873605,48.5],"min":[-60.876897100241567,-13.969201690873597,48.499999999999989],"type":"VEC3"},{"bufferView":0,"byteOffset":25956,"componentType":5126,"count":29,"max":[60.87689710024155,27.96920169087361,48.50000000000001],"min":[18.999999999999998,-13.96920169087359,48.49999999999999],"type":"VEC3"},{"bufferView":0,"byteOffset":26304,"componentType":5126,"count":29,"max":[60.87689710024155,27.96920169087361,-48.49999999999999],"min":[18.999999999999998,-13.96920169087359,-48.50000000000001],"type":"VEC3"},{"bufferView":0,"byteOffset":26652,"componentType":5126,"count":29,"max":[-19.000000000000008,27.969201690873605,-48.499999999999989],"min":[-60.876897100241567,-13.969201690873597,-48.5],"type":"VEC3"},{"bufferView":1,"byteOffset":0,"componentType":5126,"count":18,"type":"VEC3"},{"bufferView":1,"byteOffset":216,"componentType":5126,"count":4,"type":"VEC3"},{"bufferView":1,"byteOffset":264,"componentType":5126,"count":16,"type":"VEC3"},{"bufferView":1,"byteOffset":456,"componentType":5126,"count":8,"type":"VEC3"},{"bufferView":1,"byteOffset":552,"componentType":5126,"count":4,"type":"VEC3"},{"bufferView":1,"byteOffset":600,"componentType":5126,"count":4,"type":"VEC3"},{"bufferView":1,"byteOffset":648,"componentType":5126,"count":16,"type":"VEC3"},{"bufferView":1,"byteOffset":840,"componentType":5126,"count":44,"type":"VEC3"},{"bufferView":1,"byteOffset":1368,"componentType":5126,"count":20,"type":"VEC3"},{"bufferView":1,"byteOffset":1608,"componentType":5126,"count":18,"type":"VEC3"},{"bufferView":1,"byteOffset":1824,"componentType":5126,"count":20,"type":"VEC3"},{"bufferView":1,"byteOffset":2064,"componentType":5126,"count":18,"type":"VEC3"},{"bufferView":1,"byteOffset":2280,"componentType":5126,"count":78,"type":"VEC3"},{"bufferView":1,"byteOffset":3216,"componentType":5126,"count":42,"type":"VEC3"},{"bufferView":1,"byteOffset":3720,"componentType":5126,"count":6,"type":"VEC3"},{"bufferView":1,"byteOffset":3792,"componentType":5126,"count":6,"type":"VEC3"},{"bufferView":1,"byteOffset":3864,"componentType":5126,"count":42,"type":"VEC3"},{"bufferView":1,"byteOffset":4368,"componentType":5126,"count":26,"type":"VEC3"},{"bufferView":1,"byteOffset":4680,"componentType":5126,"count":69,"type":"VEC3"},{"bufferView":1,"byteOffset":5508,"componentType":5126,"count":69,"type":"VEC3"},{"bufferView":1,"byteOffset":6336,"componentType":5126,"count":12,"type":"VEC3"},{"bufferView":1,"byteOffset":6480,"componentType":5126,"count":5,"type":"VEC3"},{"bufferView":1,"byteOffset":6540,"componentType":5126,"count":5,"type":"VEC3"},{"bufferView":1,"byteOffset":6600,"componentType":5126,"count":5,"type":"VEC3"},{"bufferView":1,"byteOffset":6660,"componentType":5126,"count":5,"type":"VEC3"},{"bufferView":1,"byteOffset":6720,"componentType":5126,"count":69,"type":"VEC3"},{"bufferView":1,"byteOffset":7548,"componentType":5126,"count":69,"type":"VEC3"},{"bufferView":1,"byteOffset":8376,"componentType":5126,"count":345,"type":"VEC3"},{"bufferView":1,"byteOffset":12516,"componentType":5126,"count":14,"type":"VEC3"},{"bufferView":1,"byteOffset":12684,"componentType":5126,"count":345,"type":"VEC3"},{"bufferView":1,"byteOffset":16824,"componentType":5126,"count":14,"type":"VEC3"},{"bufferView":1,"byteOffset":16992,"componentType":5126,"count":14,"type":"VEC3"},{"bufferView":1,"byteOffset":17160,"componentType":5126,"count":14,"type":"VEC3"},{"bufferView":1,"byteOffset":17328,"componentType":5126,"count":345,"type":"VEC3"},{"bufferView":1,"byteOffset":21468,"componentType":5126,"count":345,"type":"VEC3"},{"bufferView":1,"byteOffset":25608,"componentType":5126,"count":29,"type":"VEC3"},{"bufferView":1,"byteOffset":25956,"componentType":5126,"count":29,"type":"VEC3"},{"bufferView":1,"byteOffset":26304,"componentType":5126,"count":29,"type":"VEC3"},{"bufferView":1,"byteOffset":26652,"componentType":5126,"count":29,"type":"VEC3"},{"bufferView":2,"byteOffset":0,"componentType":5126,"count":18,"type":"VEC2"},{"bufferView":2,"byteOffset":144,"componentType":5126,"count":4,"type":"VEC2"},{"bufferView":2,"byteOffset":176,"componentType":5126,"count":16,"type":"VEC2"},{"bufferView":2,"byteOffset":304,"componentType":5126,"count":8,"type":"VEC2"},{"bufferView":2,"byteOffset":368,"componentType":5126,"count":4,"type":"VEC2"},{"bufferView":2,"byteOffset":400,"componentType":5126,"count":4,"type":"VEC2"},{"bufferView":2,"byteOffset":432,"componentType":5126,"count":16,"type":"VEC2"},{"bufferView":2,"byteOffset":560,"componentType":5126,"count":44,"type":"VEC2"},{"bufferView":2,"byteOffset":912,"componentType":5126,"count":20,"type":"VEC2"},{"bufferView":2,"byteOffset":1072,"componentType":5126,"count":18,"type":"VEC2"},{"bufferView":2,"byteOffset":1216,"componentType":5126,"count":20,"type":"VEC2"},{"bufferView":2,"byteOffset":1376,"componentType":5126,"count":18,"type":"VEC2"},{"bufferView":2,"byteOffset":1520,"componentType":5126,"count":78,"type":"VEC2"},{"bufferView":2,"byteOffset":2144,"componentType":5126,"count":42,"type":"VEC2"},{"bufferView":2,"byteOffset":2480,"componentType":5126,"count":6,"type":"VEC2"},{"bufferView":2,"byteOffset":2528,"componentType":5126,"count":6,"type":"VEC2"},{"bufferView":2,"byteOffset":2576,"componentType":5126,"count":42,"type":"VEC2"},{"bufferView":2,"byteOffset":2912,"componentType":5126,"count":26,"type":"VEC2"},{"bufferView":2,"byteOffset":3120,"componentType":5126,"count":69,"type":"VEC2"},{"bufferView":2,"byteOffset":3672,"componentType":5126,"count":69,"type":"VEC2"},{"bufferView":2,"byteOffset":4224,"componentType":5126,"count":12,"type":"VEC2"},{"bufferView":2,"byteOffset":4320,"componentType":5126,"count":5,"type":"VEC2"},{"bufferView":2,"byteOffset":4360,"componentType":5126,"count":5,"type":"VEC2"},{"bufferView":2,"byteOffset":4400,"componentType":5126,"count":5,"type":"VEC2"},{"bufferView":2,"byteOffset":4440,"componentType":5126,"count":5,"type":"VEC2"},{"bufferView":2,"byteOffset":4480,"componentType":5126,"count":69,"type":"VEC2"},{"bufferView":2,"byteOffset":5032,"componentType":5126,"count":69,"type":"VEC2"},{"bufferView":2,"byteOffset":5584,"componentType":5126,"count":345,"type":"VEC2"},{"bufferView":2,"byteOffset":8344,"componentType":5126,"count":14,"type":"VEC2"},{"bufferView":2,"byteOffset":8456,"componentType":5126,"count":345,"type":"VEC2"},{"bufferView":2,"byteOffset":11216,"componentType":5126,"count":14,"type":"VEC2"},{"bufferView":2,"byteOffset":11328,"componentType":5126,"count":14,"type":"VEC2"},{"bufferView":2,"byteOffset":11440,"componentType":5126,"count":14,"type":"VEC2"},{"bufferView":2,"byteOffset":11552,"componentType":5126,"count":345,"type":"VEC2"},{"bufferView":2,"byteOffset":14312,"componentType":5126,"count":345,"type":"VEC2"},{"bufferView":2,"byteOffset":17072,"componentType":5126,"count":29,"type":"VEC2"},{"bufferView":2,"byteOffset":17304,"componentType":5126,"count":29,"type":"VEC2"},{"bufferView":2,"byteOffset":17536,"componentType":5126,"count":29,"type":"VEC2"},{"bufferView":2,"byteOffset":17768,"componentType":5126,"count":29,"type":"VEC2"},{"bufferView":3,"byteOffset":0,"componentType":5123,"count":48,"type":"SCALAR"},{"bufferView":3,"byteOffset":96,"componentType":5123,"count":6,"type":"SCALAR"},{"bufferView":3,"byteOffset":108,"componentType":5123,"count":42,"type":"SCALAR"},{"bufferView":3,"byteOffset":192,"componentType":5123,"count":24,"type":"SCALAR"},{"bufferView":3,"byteOffset":240,"componentType":5123,"count":6,"type":"SCALAR"},{"bufferView":3,"byteOffset":252,"componentType":5123,"count":6,"type":"SCALAR"},{"bufferView":3,"byteOffset":264,"componentType":5123,"count":42,"type":"SCALAR"},{"bufferView":3,"byteOffset":348,"componentType":5123,"count":132,"type":"SCALAR"},{"bufferView":3,"byteOffset":612,"componentType":5123,"count":54,"type":"SCALAR"},{"bufferView":3,"byteOffset":720,"componentType":5123,"count":48,"type":"SCALAR"},{"bufferView":3,"byteOffset":816,"componentType":5123,"count":54,"type":"SCALAR"},{"bufferView":3,"byteOffset":924,"componentType":5123,"count":48,"type":"SCALAR"},{"bufferView":3,"byteOffset":1020,"componentType":5123,"count":300,"type":"SCALAR"},{"bufferView":3,"byteOffset":1620,"componentType":5123,"count":120,"type":"SCALAR"},{"bufferView":3,"byteOffset":1860,"componentType":5123,"count":12,"type":"SCALAR"},{"bufferView":3,"byteOffset":1884,"componentType":5123,"count":12,"type":"SCALAR"},{"bufferView":3,"byteOffset":1908,"componentType":5123,"count":120,"type":"SCALAR"},{"bufferView":3,"byteOffset":2148,"componentType":5123,"count":72,"type":"SCALAR"},{"bufferView":3,"byteOffset":2292,"componentType":5123,"count":201,"type":"SCALAR"},{"bufferView":3,"byteOffset":2696,"componentType":5123,"count":201,"type":"SCALAR"},{"bufferView":3,"byteOffset":3100,"componentType":5123,"count":30,"type":"SCALAR"},{"bufferView":3,"byteOffset":3160,"componentType":5123,"count":9,"type":"SCALAR"},{"bufferView":3,"byteOffset":3180,"componentType":5123,"count":9,"type":"SCALAR"},{"bufferView":3,"byteOffset":3200,"componentType":5123,"count":9,"type":"SCALAR"},{"bufferView":3,"byteOffset":3220,"componentType":5123,"count":9,"type":"SCALAR"},{"bufferView":3,"byteOffset":3240,"componentType":5123,"count":201,"type":"SCALAR"},{"bufferView":3,"byteOffset":3644,"componentType":5123,"count":201,"type":"SCALAR"},{"bufferView":3,"byteOffset":4048,"componentType":5123,"count":1839,"type":"SCALAR"},{"bufferView":3,"byteOffset":7728,"componentType":5123,"count":36,"type":"SCALAR"},{"bufferView":3,"byteOffset":7800,"componentType":5123,"count":1839,"type":"SCALAR"},{"bufferView":3,"byteOffset":11480,"componentType":5123,"count":36,"type":"SCALAR"},{"bufferView":3,"byteOffset":11552,"componentType":5123,"count":36,"type":"SCALAR"},{"bufferView":3,"byteOffset":11624,"componentType":5123,"count":36,"type":"SCALAR"},{"bufferView":3,"byteOffset":11696,"componentType":5123,"count":1839,"type":"SCALAR"},{"bufferView":3,"byteOffset":15376,"componentType":5123,"count":1839,"type":"SCALAR"},{"bufferView":3,"byteOffset":19056,"componentType":5123,"count":81,"type":"SCALAR"},{"bufferView":3,"byteOffset":19220,"componentType":5123,"count":81,"type":"SCALAR"},{"bufferView":3,"byteOffset":19384,"componentType":5123,"count":81,"type":"SCALAR"},{"bufferView":3,"byteOffset":19548,"componentType":5123,"count":81,"type":"SCALAR"}],"asset":{"generator":"Open CASCADE Technology [www.opencascade.com]","version":"2.0"},"bufferViews":[{"buffer":0,"byteLength":27000,"byteOffset":0,"byteStride":12,"target":34962},{"buffer":0,"byteLength":27000,"byteOffset":27000,"byteStride":12,"target":34962},{"buffer":0,"byteLength":18000,"byteOffset":54000,"byteStride":8,"target":34962},{"buffer":0,"byteLength":19712,"byteOffset":72000,"target":34963}],"buffers":[{"byteLength":91712,"uri":"mini_model.bin"}],"materials":[{"name":"mat_0","pbrMetallicRoughness":{"baseColorFactor":[0.800000011920929,0.800000011920929,0.800000011920929,1.0]},"doubleSided":true}],"meshes":[{"name":"SOLID","primitives":[{"attributes":{"NORMAL":39,"POSITION":0,"TEXCOORD_0":78},"indices":117,"material":0,"mode":4},{"attributes":{"NORMAL":40,"POSITION":1,"TEXCOORD_0":79},"indices":118,"material":0,"mode":4},{"attributes":{"NORMAL":41,"POSITION":2,"TEXCOORD_0":80},"indices":119,"material":0,"mode":4},{"attributes":{"NORMAL":42,"POSITION":3,"TEXCOORD_0":81},"indices":120,"material":0,"mode":4},{"attributes":{"NORMAL":43,"POSITION":4,"TEXCOORD_0":82},"indices":121,"material":0,"mode":4},{"attributes":{"NORMAL":44,"POSITION":5,"TEXCOORD_0":83},"indices":122,"material":0,"mode":4},{"attributes":{"NORMAL":45,"POSITION":6,"TEXCOORD_0":84},"indices":123,"material":0,"mode":4},{"attributes":{"NORMAL":46,"POSITION":7,"TEXCOORD_0":85},"indices":124,"material":0,"mode":4},{"attributes":{"NORMAL":47,"POSITION":8,"TEXCOORD_0":86},"indices":125,"material":0,"mode":4},{"attributes":{"NORMAL":48,"POSITION":9,"TEXCOORD_0":87},"indices":126,"material":0,"mode":4},{"attributes":{"NORMAL":49,"POSITION":10,"TEXCOORD_0":88},"indices":127,"material":0,"mode":4},{"attributes":{"NORMAL":50,"POSITION":11,"TEXCOORD_0":89},"indices":128,"material":0,"mode":4},{"attributes":{"NORMAL":51,"POSITION":12,"TEXCOORD_0":90},"indices":129,"material":0,"mode":4},{"attributes":{"NORMAL":52,"POSITION":13,"TEXCOORD_0":91},"indices":130,"material":0,"mode":4},{"attributes":{"NORMAL":53,"POSITION":14,"TEXCOORD_0":92},"indices":131,"material":0,"mode":4},{"attributes":{"NORMAL":54,"POSITION":15,"TEXCOORD_0":93},"indices":132,"material":0,"mode":4},{"attributes":{"NORMAL":55,"POSITION":16,"TEXCOORD_0":94},"indices":133,"material":0,"mode":4},{"attributes":{"NORMAL":56,"POSITION":17,"TEXCOORD_0":95},"indices":134,"material":0,"mode":4},{"attributes":{"NORMAL":57,"POSITION":18,"TEXCOORD_0":96},"indices":135,"material":0,"mode":4},{"attributes":{"NORMAL":58,"POSITION":19,"TEXCOORD_0":97},"indices":136,"material":0,"mode":4},{"attributes":{"NORMAL":59,"POSITION":20,"TEXCOORD_0":98},"indices":137,"material":0,"mode":4},{"attributes":{"NORMAL":60,"POSITION":21,"TEXCOORD_0":99},"indices":138,"material":0,"mode":4},{"attributes":{"NORMAL":61,"POSITION":22,"TEXCOORD_0":100},"indices":139,"material":0,"mode":4},{"attributes":{"NORMAL":62,"POSITION":23,"TEXCOORD_0":101},"indices":140,"material":0,"mode":4},{"attributes":{"NORMAL":63,"POSITION":24,"TEXCOORD_0":102},"indices":141,"material":0,"mode":4},{"attributes":{"NORMAL":64,"POSITION":25,"TEXCOORD_0":103},"indices":142,"material":0,"mode":4},{"attributes":{"NORMAL":65,"POSITION":26,"TEXCOORD_0":104},"indices":143,"material":0,"mode":4},{"attributes":{"NORMAL":66,"POSITION":27,"TEXCOORD_0":105},"indices":144,"material":0,"mode":4},{"attributes":{"NORMAL":67,"POSITION":28,"TEXCOORD_0":106},"indices":145,"material":0,"mode":4},{"attributes":{"NORMAL":68,"POSITION":29,"TEXCOORD_0":107},"indices":146,"material":0,"mode":4},{"attributes":{"NORMAL":69,"POSITION":30,"TEXCOORD_0":108},"indices":147,"material":0,"mode":4},{"attributes":{"NORMAL":70,"POSITION":31,"TEXCOORD_0":109},"indices":148,"material":0,"mode":4},{"attributes":{"NORMAL":71,"POSITION":32,"TEXCOORD_0":110},"indices":149,"material":0,"mode":4},{"attributes":{"NORMAL":72,"POSITION":33,"TEXCOORD_0":111},"indices":150,"material":0,"mode":4},{"attributes":{"NORMAL":73,"POSITION":34,"TEXCOORD_0":112},"indices":151,"material":0,"mode":4},{"attributes":{"NORMAL":74,"POSITION":35,"TEXCOORD_0":113},"indices":152,"material":0,"mode":4},{"attributes":{"NORMAL":75,"POSITION":36,"TEXCOORD_0":114},"indices":153,"material":0,"mode":4},{"attributes":{"NORMAL":76,"POSITION":37,"TEXCOORD_0":115},"indices":154,"material":0,"mode":4},{"attributes":{"NORMAL":77,"POSITION":38,"TEXCOORD_0":116},"indices":155,"material":0,"mode":4}]}],"nodes":[{"mesh":0,"name":"MiniModel"}],"scene":0,"scenes":[{"nodes":[0]}]}